<svg width="76" height="76" viewBox="0 0 76 76" fill="none" xmlns="http://www.w3.org/2000/svg">
<g filter="url(#filter0_d_42_8410)">
<circle cx="36" cy="35" r="34" fill="white"/>
</g>
<path fill-rule="evenodd" clip-rule="evenodd" d="M16 35C16 23.9543 24.9543 15 36 15C47.0456 15 56 23.9543 56 35C56 46.0456 47.0456 55 36 55C24.9543 55 16 46.0456 16 35ZM43.4142 29.5858C44.1952 30.3668 44.1952 31.6332 43.4142 32.4142L36.0486 39.7798C34.9172 40.9112 33.0828 40.9112 31.9514 39.7798L28.5858 36.4142C27.8047 35.6332 27.8047 34.3668 28.5858 33.5858C29.3668 32.8048 30.6332 32.8048 31.4142 33.5858L34 36.1716L40.5858 29.5858C41.3668 28.8047 42.6332 28.8047 43.4142 29.5858Z" fill="#1EB960"/>
<defs>
<filter id="filter0_d_42_8410" x="0" y="0" width="76" height="76" filterUnits="userSpaceOnUse" color-interpolation-filters="sRGB">
<feFlood flood-opacity="0" result="BackgroundImageFix"/>
<feColorMatrix in="SourceAlpha" type="matrix" values="0 0 0 0 0 0 0 0 0 0 0 0 0 0 0 0 0 0 127 0" result="hardAlpha"/>
<feOffset dx="2" dy="3"/>
<feGaussianBlur stdDeviation="2"/>
<feComposite in2="hardAlpha" operator="out"/>
<feColorMatrix type="matrix" values="0 0 0 0 0 0 0 0 0 0 0 0 0 0 0 0 0 0 0.03 0"/>
<feBlend mode="normal" in2="BackgroundImageFix" result="effect1_dropShadow_42_8410"/>
<feBlend mode="normal" in="SourceGraphic" in2="effect1_dropShadow_42_8410" result="shape"/>
</filter>
</defs>
</svg>
