<svg width="76" height="76" viewBox="0 0 76 76" fill="none" xmlns="http://www.w3.org/2000/svg">
<g filter="url(#filter0_d_42_8436)">
<circle cx="36" cy="35" r="34" fill="white"/>
</g>
<path d="M36 15C41.3043 15 46.3914 17.1071 50.1421 20.8579C53.8929 24.6086 56 29.6957 56 35C56 40.3043 53.8929 45.3914 50.1421 49.1421C46.3914 52.8929 41.3043 55 36 55C30.6957 55 25.6086 52.8929 21.8579 49.1421C18.1071 45.3914 16 40.3043 16 35C16 29.6957 18.1071 24.6086 21.8579 20.8579C25.6086 17.1071 30.6957 15 36 15ZM36 23.5714C35.6373 23.5711 35.2784 23.6465 34.9465 23.7927C34.6145 23.9389 34.3166 24.1527 34.072 24.4205C33.8273 24.6883 33.6412 25.0042 33.5255 25.348C33.4098 25.6918 33.367 26.0559 33.4 26.4171L34.4429 37.8629C34.4833 38.2477 34.6648 38.6039 34.9523 38.8628C35.2399 39.1217 35.6131 39.265 36 39.265C36.3869 39.265 36.7602 39.1217 37.0477 38.8628C37.3352 38.6039 37.5167 38.2477 37.5571 37.8629L38.5971 26.4171C38.6301 26.0561 38.5875 25.6922 38.4719 25.3486C38.3564 25.005 38.1705 24.6893 37.9261 24.4215C37.6818 24.1538 37.3843 23.9399 37.0526 23.7935C36.721 23.6472 36.3625 23.5715 36 23.5714ZM36 46.4286C36.6062 46.4286 37.1876 46.1878 37.6162 45.7591C38.0449 45.3304 38.2857 44.7491 38.2857 44.1429C38.2857 43.5366 38.0449 42.9553 37.6162 42.5266C37.1876 42.098 36.6062 41.8571 36 41.8571C35.3938 41.8571 34.8124 42.098 34.3838 42.5266C33.9551 42.9553 33.7143 43.5366 33.7143 44.1429C33.7143 44.7491 33.9551 45.3304 34.3838 45.7591C34.8124 46.1878 35.3938 46.4286 36 46.4286Z" fill="#E22929"/>
<defs>
<filter id="filter0_d_42_8436" x="0" y="0" width="76" height="76" filterUnits="userSpaceOnUse" color-interpolation-filters="sRGB">
<feFlood flood-opacity="0" result="BackgroundImageFix"/>
<feColorMatrix in="SourceAlpha" type="matrix" values="0 0 0 0 0 0 0 0 0 0 0 0 0 0 0 0 0 0 127 0" result="hardAlpha"/>
<feOffset dx="2" dy="3"/>
<feGaussianBlur stdDeviation="2"/>
<feComposite in2="hardAlpha" operator="out"/>
<feColorMatrix type="matrix" values="0 0 0 0 0 0 0 0 0 0 0 0 0 0 0 0 0 0 0.03 0"/>
<feBlend mode="normal" in2="BackgroundImageFix" result="effect1_dropShadow_42_8436"/>
<feBlend mode="normal" in="SourceGraphic" in2="effect1_dropShadow_42_8436" result="shape"/>
</filter>
</defs>
</svg>
